<svg xmlns="http://www.w3.org/2000/svg" xmlns:xlink="http://www.w3.org/1999/xlink" version="1.1" id="Layer_2" x="0px" y="0px" viewBox="0 0 1080 1080" style="enable-background:new 0 0 1080 1080;" xml:space="preserve">
<style xmlns="http://www.w3.org/2000/svg" type="text/css">
	.st0{fill:#EBF7FF;}
	.st1{fill:#F2F2F2;}
	.st2{fill:#DCF2FF;}
	.st3{fill:#1A87D8;}
	.st4{fill:#2A94F4;}
	.st5{fill:#B0E1FF;}
	.st6{fill:#0E538C;}
	.st7{fill:#F7C39F;}
	.st8{fill:#FCD2B1;}
	.st9{fill:#3252df;}
	.st10{fill:#CCE9FF;}
	.st11{fill:#0B4870;}
	.st12{fill:#FFE3CA;}
	.st13{fill:#1B82CE;}
	.st14{fill:#3FABFC;}
</style>
<path xmlns="http://www.w3.org/2000/svg" class="st0" d="M148.49,980.29c-67.58-52.75-53.6-120.33-65.25-178.59s41.95-135.17,11.65-179.45s-36.64-98.45,20.13-140.11  s685.92-7.03,685.92-7.03s215.62,234.61,170.35,358.19s22.47,146.99,22.47,146.99H148.49z"/>
<path xmlns="http://www.w3.org/2000/svg" class="st1" d="M85.06,513.11c43.49-124.44,93.59-267.93,127.44-277.43s112.84,143.87,121.87,157.46  c22.57-63.14,84.71-234.67,140.53-245.95c85.16,13.54,166.41,267.01,166.41,267.01s69.05-189.85,106.75-202.47  c62.52,23.49,170.47,301.39,170.47,301.39H85.06z"/>
<g xmlns="http://www.w3.org/2000/svg">
	<path class="st2" d="M697.6,227.09c-18.05-17.08-39.96-21.87-67.05-20.6c-4.44,0.21-9.4,0.95-11.96,4.02   c-2.55,3.07,0.21,8.67,4.53,7.81c-30.6-14.48-67.08-19.92-101.72-15.18c-3.83,0.52-8,1.36-10.28,4c-2.29,2.64-0.77,7.47,3.11,7.51   c-28.46-11.81-79.77,10.99-74.63,12.96L697.6,227.09z"/>
</g>
<g xmlns="http://www.w3.org/2000/svg">
	<g>
		<path class="st3" d="M218.72,1010.47c-28.77-54.74-81.84-96.12-141.94-110.69c42.48,44.73,89.63,85.02,140.43,120L218.72,1010.47z    "/>
	</g>
	<g>
		<path class="st4" d="M238.77,1028.46C169.9,973.08,120.89,893.52,102.4,807.1c54.01,69.43,101.07,144.26,140.25,223.02    L238.77,1028.46z"/>
	</g>
	<g>
		<path class="st3" d="M225.28,1034.79c-13.43-42.16-26.92-84.65-32.01-128.6s-1.28-90,18.51-129.57    c28.74,85.97,32.35,180.18,10.26,268.09L225.28,1034.79z"/>
	</g>
	<g>
		<path class="st5" d="M228.37,1038.02c-50.4-72.73-71.35-165.26-57.21-252.6c44.96,74.55,49.17,165.86,52.15,252.87L228.37,1038.02    z"/>
	</g>
	<g>
		<path class="st4" d="M223.72,1007.16c-12.06-72.79,16.89-151,73.44-198.39c-6.56,77.83-33.7,153.83-77.94,218.19L223.72,1007.16z"/>
	</g>
</g>
<g xmlns="http://www.w3.org/2000/svg">
	<g>
		<path class="st3" d="M995.05,982.79c-19.99-35.47-55.72-61.68-95.55-70.11c28.82,28.62,60.63,54.22,94.74,76.27L995.05,982.79z"/>
	</g>
	<g>
		<path class="st4" d="M1008.59,994.24c-46.4-35.11-80.19-86.53-94.03-143.05c36.89,44.65,69.31,92.99,96.61,144.07L1008.59,994.24z    "/>
	</g>
	<g>
		<path class="st3" d="M999.83,998.67c-9.65-27.49-19.35-55.19-23.55-84.02s-2.58-59.21,9.68-85.63    c20.58,56.02,24.77,117.96,11.93,176.24L999.83,998.67z"/>
	</g>
	<g>
		<path class="st5" d="M1001.93,1000.73c-34.57-46.89-50.15-107.39-42.53-165.15c31.03,48.2,35.56,108.21,39.2,165.42    L1001.93,1000.73z"/>
	</g>
	<g>
		<path class="st4" d="M998.27,980.51c-9.34-47.67,8.2-99.71,44.5-131.99c-2.81,51.35-19.21,101.89-47.09,145.11L998.27,980.51z"/>
	</g>
</g>
<path xmlns="http://www.w3.org/2000/svg" class="st1" d="M991.36,1044.85H145.42c-29.84,0-40.94-49.97-15.38-69.52c91.32-69.87,308.73-119.28,508.29-119.28  c209.82,0,336.03,54.63,377.46,130.22C1029.33,1010.98,1015.07,1044.85,991.36,1044.85z"/>
<g xmlns="http://www.w3.org/2000/svg">
	<path class="st6" d="M772.04,946.65c0,0-10.36-9.28-21.38-8.18c-11.02,1.1-18.33,14.7-16.13,23.51s15.6,12.21,32.06,15.52   c16.46,3.31,39.97,5.51,37.03-4.41c-0.93-3.15-1.25-6.74-1.24-10.17c0.01-7.99-6.2-14.6-14.17-15.15L772.04,946.65z"/>
	<path class="st6" d="M883.76,946.65c0,0-10.36-9.28-21.38-8.18c-11.02,1.1-18.33,14.7-16.13,23.51s15.6,12.21,32.06,15.52   c16.46,3.31,39.97,5.51,37.03-4.41c-0.93-3.15-1.25-6.74-1.24-10.17c0.01-7.99-6.2-14.6-14.17-15.15L883.76,946.65z"/>
	<path class="st7" d="M902.87,809.09c3.32,62.48,0.37,146.47,0.37,146.47h-27.89c0,0-7.1-67.67-15.34-146.47   c-5.05-48.29-10.53-100.76-15.06-144.39c-5.63-54.19-9.8-94.76-9.88-96.7c0,0,12.07-3.82,27.12-7.07   c23.98-5.19,55.54-8.94,57.97,6.49c3.79,23.99-18.45,135.73-25.81,181.39C898.84,759.32,901.44,782.22,902.87,809.09z"/>
	<path class="st8" d="M847.64,653.84c-9.4,36.86-28.66,79.24-34.64,98.52c3.03,8.08,2.51,30.1,0.31,56.73   c-4.96,60.12-18.39,143.77-18.39,143.77s-12.16,6.08-28.32,0c2.17-45.27,5.3-95.35,8.66-143.77   c8.37-120.62,18.21-230.96,18.21-230.96s33.07-41.51,68.72-17.2C862.25,583.74,857.7,614.45,847.64,653.84z"/>
	<path class="st9" d="M813.31,809.09c-4.96,60.12-18.39,143.77-18.39,143.77s-12.16,6.08-28.32,0c2.17-45.27,5.3-95.35,8.66-143.77   H813.31z"/>
	<path class="st9" d="M903.25,955.56h-27.89c0,0-7.1-67.67-15.34-146.47h42.86C906.2,871.56,903.25,955.56,903.25,955.56z"/>
	<path class="st10" d="M801.35,426.2l-37.9,202.21c0,0,169.57,4.92,182.11-4.22c-1.39-35.73-18.55-164.2-49.1-198   S801.35,426.2,801.35,426.2z"/>
	<path class="st8" d="M733.31,194.58l25.78-22.24c0,0,34.92-6.85,45.69-8.49c-4.9,7.51-34.59,17.3-33.61,17.3   c9.79-0.33,20.45-0.33,22.3,1.31c-0.76,2.94-29.48,6.85-33.07,8.16c-3.59,1.96-20.56,14.76-20.56,14.76L733.31,194.58z"/>
	<path class="st8" d="M820.31,241.85c0,0,8.8-1.91,9.99,0c1.19,1.91,4.77,8.79-5,16.92c13.38,1.25,32.77-3.86,35.9-15.54   c3.13-11.68-2.24-24.19-2.24-24.19l-13.72-8.06L820.31,241.85z"/>
	<g>
		<path class="st11" d="M805.53,183.81c-6-2.3-10.65-7.87-11.79-14.19c-1.14-6.33,1.31-13.19,6.23-17.32    c4.16-3.49,9.72-4.96,15.15-5.1c5.43-0.14,10.81,0.93,16.13,2c11.67,2.35,24.53,5.45,31.21,15.3c6.55,9.66,4.89,22.48,2.97,33.99    c-1.4,8.4-3.34,17.7-10.29,22.61c-6.06,4.28-14.56,3.85-21.17,0.47c-6.61-3.38-11.59-9.25-15.71-15.42    c-4.11-6.17-7.55-12.81-12.06-18.69L805.53,183.81z"/>
	</g>
	<path class="st12" d="M847.3,210.99c5.97-2.99,10.86-12.76,6.79-17.37c-4.07-4.61-10.31,1.63-10.86,3.8   C842.69,199.59,847.3,210.99,847.3,210.99z"/>
	<path class="st12" d="M803.77,170.54c-3.4,11.48-8.29,63.77,10.42,72.7c18.92-2.76,30.61-17.64,34.01-36.35   C848.2,206.89,849.26,154.59,803.77,170.54z"/>
	<path class="st11" d="M797.76,162.16c6.01,8.37,33.77,44.78,61.21,37.92C857.26,178.82,842.35,142.96,797.76,162.16z"/>
	<polygon class="st9" points="841.96,201.47 848.2,189.94 845.08,187.69 838.95,199.67  "/>
	<path class="st10" d="M813,267.09c8.66-14.11,38.48-27.72,57.39-24.44c18.92,3.28,15.07,33.1,15.07,33.1L813,267.09z"/>
	<path class="st4" d="M885.78,432.8h-85.23c0,0,0.76-5.83,0.07-23.4c-0.02-0.54-0.04-1.09-0.07-1.64   c-0.71-16.55-3.16-29.37-5.63-39.84c-4.89-20.71-9.84-32.28-1.45-45.47C613,250.16,732.81,191.96,732.81,191.96   s13.11,7.66,16.63,9.52c-60.53,59.44,63.55,65.62,63.55,65.62s33.04,3.95,72.46,8.66S885.78,432.8,885.78,432.8z"/>
	<path class="st6" d="M991.09,479.83c-25.42,23.86-104.74,13.47-122.52,8.45c-0.53-0.15-1.01-0.29-1.43-0.43   c-13.35-0.53-28.86-9.09-42.77-26.72c-29.62-116.3,3.05-185.53,16.45-203c0.15-0.18,0.28-0.36,0.42-0.54   c0,0,17.34-21.4,78.25-17.66C980.41,243.67,987.35,426.4,991.09,479.83z"/>
	<path class="st9" d="M812.33,389.1c0,0-0.35,27.67-0.69,39.59c-1.42,0.45-6.2-8.9-11.02-19.3c-0.02-0.54-0.04-1.09-0.07-1.64   c-0.71-16.55-3.16-29.37-5.63-39.84C800.69,375.59,808.96,386.28,812.33,389.1z"/>
	<path class="st9" d="M839.52,259.93c0,0-17.79-0.22-29.66,6.95c7.19,3.67,19.37,12.13,19.37,12.13S838.68,261.09,839.52,259.93z"/>
	<path class="st4" d="M923.67,239.49c32.78,12.5,50.23,50.22,47.3,75.13c-2.93,24.91-59.23,60.49-103.83-5.07   c-2.86-19.96-7-51.69-25.89-51.96C847.73,234.4,923.67,239.49,923.67,239.49z"/>
	<path class="st13" d="M912.31,404.62c-11.78,3.79-22.41,36.62-16.06,71c4.67,16.36,6.66,22.95,22.19,26.16   C922.28,476.62,919.48,412.3,912.31,404.62z"/>
	<path class="st4" d="M911.26,423.28c3.83,9.11,2.06,77.4,7.18,78.5c9.88-0.37,66.9-4.99,75.32-22.19   c-2.56-38.05,1.98-70.23-5.23-73.9C971.8,402.03,912.55,414.9,911.26,423.28z"/>
	<path class="st14" d="M914,403.95c23.15-5.89,71.3-6.3,74.71-3.83s10.23,59.1-37.36,44.77C903.77,430.56,898.65,409.06,914,403.95z   "/>
	<path class="st11" d="M868.57,488.28c-0.53-0.15-1.01-0.29-1.43-0.43c-13.35-0.53-28.86-9.09-42.77-26.72   c-29.62-116.3,3.05-185.53,16.45-203C856.93,276.1,889.45,355.23,868.57,488.28z"/>
	<path class="st4" d="M858.75,388.62c0,0,1.32,63.93-2.02,68.95c-21.17,0.28-37.05-2.23-37.05-2.23l-8.56-8.63l1.21-41.94   C812.33,404.77,847.96,384.02,858.75,388.62z"/>
	<path class="st14" d="M860.91,385.15c0,0-39.27-8.91-42.62-7.52c-3.34,1.39-15.75,27.77,2.79,36.21   C839.61,422.27,860.91,385.15,860.91,385.15z"/>
	<g>
		<path class="st11" d="M836.76,152.37c-4.24-11.21,21-27.04,36.9-30.46c15.9-3.42,33.16-0.6,48.8,3.38    c10.54,2.68,21.55,6.35,26.81,13.25c7.2,9.43,0.9,21.18-8.09,29.83c-8.99,8.64-20.79,16.16-26.22,26.14    c-6.64,12.21-2.53,26,4.42,38.13s16.67,23.51,21.67,36.09c2.45,6.17,3.69,12.89,0.51,18.89c-5.11,9.65-21.29,15.12-35.93,13.76    c-14.64-1.36-27.27-8.46-35-17.22c-7.73-8.76-11.12-19.05-12.97-29.26c-3.02-16.71-2.18-33.76,2.48-50.28    c2.59-9.18,6.36-18.37,5.58-27.71s-7.32-19.18-19.68-22.83L836.76,152.37z"/>
	</g>
	<circle class="st10" cx="934.74" cy="331.62" r="8.26"/>
	<circle class="st10" cx="971.29" cy="447.2" r="7.74"/>
	
		<ellipse transform="matrix(0.2261 -0.9741 0.9741 0.2261 233.2548 1115.9685)" class="st10" cx="818.98" cy="411.18" rx="7.74" ry="6.57"/>
</g>
<circle xmlns="http://www.w3.org/2000/svg" class="st9" cx="167.26" cy="134.23" r="51.47"/>
<polygon xmlns="http://www.w3.org/2000/svg" class="st4" points="122.39,439.23 112.38,517.91 132.39,517.91 "/>
<polygon xmlns="http://www.w3.org/2000/svg" class="st6" points="132.39,469.3 126.21,517.91 138.57,517.91 "/>
<polygon xmlns="http://www.w3.org/2000/svg" class="st4" points="731.05,448.94 721.05,527.62 741.05,527.62 "/>
<polygon xmlns="http://www.w3.org/2000/svg" class="st6" points="592.93,431.36 587.93,470.7 597.93,470.7 "/>
<polygon xmlns="http://www.w3.org/2000/svg" class="st4" points="600,415.08 592.93,470.7 607.07,470.7 "/>
<polygon xmlns="http://www.w3.org/2000/svg" class="st6" points="312.56,346.92 304.84,407.62 320.28,407.62 "/>
<polygon xmlns="http://www.w3.org/2000/svg" class="st4" points="320.28,365.04 314.84,407.83 325.72,407.83 "/>
<polygon xmlns="http://www.w3.org/2000/svg" class="st4" points="712.36,365.04 706.92,407.83 717.8,407.83 "/>
<polygon xmlns="http://www.w3.org/2000/svg" class="st11" points="719.54,351.35 712.36,407.83 726.72,407.83 "/>
<polygon xmlns="http://www.w3.org/2000/svg" class="st6" points="741.05,479.02 734.88,527.62 747.23,527.62 "/>
<g xmlns="http://www.w3.org/2000/svg">
	<path class="st2" d="M432.63,120.96c-13.27-12.56-29.38-16.08-49.3-15.15c-3.26,0.15-6.91,0.7-8.79,2.95s0.15,6.37,3.33,5.74   c-22.5-10.64-49.33-14.65-74.8-11.16c-2.81,0.39-5.88,1-7.56,2.94c-1.68,1.94-0.56,5.49,2.29,5.52   c-20.93-8.68-58.66,8.08-54.88,9.53L432.63,120.96z"/>
</g>
</svg>